<?xml version="1.0" encoding="utf-8"?>
<!-- Generator: Adobe Illustrator 27.5.0, SVG Export Plug-In . SVG Version: 6.00 Build 0)  -->
<svg version="1.1" xmlns="http://www.w3.org/2000/svg" xmlns:xlink="http://www.w3.org/1999/xlink" x="0px" y="0px"
	 viewBox="0 0 1122 1122" style="enable-background:new 0 0 1122 1122;" xml:space="preserve">
<g id="Bg">
	<rect style="fill:#FFFFFF;" width="1122" height="1122"/>
</g>
<g id="Objects">
	<path id="XMLID_36725_" style="fill:#1A1A1A;" d="M561,943.883c-14.735,35.77-71.322,41.408-106.799,40.72
		c-34.591-0.671-76.98-14.701-100.376-38.663c-8.932-9.148-15.245-20.524-15.96-32.819c25.648,25.169,69.349,18.452,94.272-3.032
		c11.21-9.663,20.303-21.095,30.789-31.387c10.486-10.293,22.883-19.696,37.84-23.57c21.913-5.676,47.417,2.546,60.234,19.418
		c12.817-16.872,38.32-25.094,60.234-19.418c14.958,3.875,27.355,13.278,37.84,23.57c10.486,10.293,19.578,21.724,30.789,31.387
		c24.923,21.484,68.624,28.2,94.273,3.032c-0.716,12.294-7.028,23.671-15.96,32.819c-23.396,23.962-65.785,37.992-100.376,38.663
		C632.322,985.29,575.735,979.653,561,943.883z"/>
	<g id="XMLID_36712_">
		<path id="XMLID_36715_" style="fill:#1A1A1A;" d="M860.269,629.678c-0.393-2.073-14.534-6.403-16.752-7.267
			c-5.654-2.218-11.376-4.243-17.165-6.067c-7.594-2.4-15.264-4.454-23.03-6.173c-26.342-5.827-53.366-8.016-80.342-8.073
			c-21.533-0.039-84.873,4.118-112.367,18.576v-0.01c-20.477,9.561-35.644,13.565-49.612,13.565s-29.136-4.003-49.613-13.565v0.01
			c-27.504-14.458-90.835-18.614-112.367-18.576c-26.976,0.058-54.009,2.246-80.342,8.073c-7.776,1.718-15.437,3.773-23.03,6.173
			c-5.789,1.824-11.52,3.85-17.165,6.067c-2.217,0.864-16.358,5.194-16.752,7.267c-1.046,5.558-0.662,11.155-0.662,18.653
			c0-0.893,10.003,2.15,10.896,2.602c3.216,1.67,5.904,4.166,7.882,7.2c4.992,7.68,3.946,17.712,5.126,26.41
			c1.306,9.619,1.459,19.382,3.59,28.992c3.975,17.99,11.798,36.509,23.606,50.803c11.155,13.498,31.488,18.624,47.664,22.944
			c20.861,5.578,42.902,4.858,64.31,2.122c21.859-2.784,44.208-7.958,61.833-21.197c15.504-11.635,26.131-28.617,34.608-46.06
			c3.072-6.326,5.846-12.979,8.15-19.824c0.01-0.019,0.01-0.029,0.019-0.038c0.518-1.565,1.027-3.139,1.497-4.714
			c2.237-6.317,5.52-12.806,10.358-18.202c5.453-6.067,12.922-9.11,20.39-9.11s14.938,3.043,20.381,9.11
			c4.848,5.405,8.131,11.904,10.368,18.221c0.47,1.565,0.97,3.12,1.488,4.666c0.01,0.019,0.019,0.038,0.029,0.067
			c2.304,6.845,5.078,13.498,8.15,19.824c8.477,17.443,19.104,34.425,34.608,46.06c17.625,13.238,39.974,18.413,61.833,21.197
			c21.408,2.736,43.449,3.456,64.3-2.122c16.185-4.32,36.518-9.446,47.673-22.944c11.808-14.294,19.632-32.813,23.606-50.803
			c2.131-9.609,2.285-19.373,3.59-28.992c1.171-8.698,0.134-18.73,5.126-26.41c1.977-3.034,4.666-5.53,7.882-7.2
			c0.883-0.451,10.896-3.494,10.896-2.602C860.931,640.833,861.315,635.236,860.269,629.678z M278.886,639.969
			c-5.117,0-9.264-1.229-9.264-2.746s4.147-2.746,9.264-2.746c5.117,0,9.254,1.229,9.254,2.746S284.003,639.969,278.886,639.969z
			 M508.92,683.015c-5.539,34.205-22.281,71.798-58.656,81.638c-19.642,5.318-73.939,9.398-107.299-4.982
			c-33.36-14.381-35.664-72.729-36.566-92.668c-0.902-19.949,14.39-46.339,98.102-46.339c15.821,0,31.728,0.902,47.26,4.022
			c15.293,3.072,30.787,7.142,43.421,16.685c4.205,3.177,7.651,6.278,10.186,9.984c2.266,3.302,3.811,7.085,4.531,11.827
			C510.917,669.834,509.986,676.43,508.92,683.015z M815.6,667.002c-0.902,19.939-3.206,78.288-36.566,92.668
			c-33.36,14.381-87.657,10.301-107.298,4.982c-36.384-9.84-53.126-47.433-58.656-81.638c-1.066-6.586-1.997-13.181-0.989-19.833
			c0.73-4.742,2.275-8.525,4.541-11.827c2.534-3.706,5.981-6.806,10.186-9.984c12.634-9.542,28.128-13.613,43.421-16.685
			c15.533-3.12,31.44-4.022,47.26-4.022C801.21,620.664,816.503,647.054,815.6,667.002z M843.114,639.969
			c-5.117,0-9.264-1.229-9.264-2.746s4.147-2.746,9.264-2.746s9.264,1.229,9.264,2.746S848.23,639.969,843.114,639.969z"/>
		<path id="XMLID_36714_" style="fill:#FFFFFF;" d="M843.115,634.479c-5.115,0-9.261,1.229-9.261,2.744s4.146,2.744,9.261,2.744
			c5.115,0,9.261-1.229,9.261-2.744S848.229,634.479,843.115,634.479z"/>
		<ellipse id="XMLID_36713_" style="fill:#FFFFFF;" cx="278.884" cy="637.223" rx="9.261" ry="2.744"/>
	</g>
	<g id="XMLID_36829_">
		<path id="XMLID_36834_" style="fill:#B3B2B0;" d="M568.632,445c0.291,0,0.584-0.001,0.875-0.001h-3.141
			C567.201,444.999,567.996,445,568.632,445z"/>
		<path id="XMLID_36833_" style="fill:#1A1A1A;" d="M365.509,372.587h390.981l-0.009,0.419c2.948-78.88,9.966-157.53,21.035-235.307
			c2.317-16.283-6.424-32.114-21.461-38.775c-62.02-27.474-328.09-27.474-390.111,0c-15.037,6.661-23.778,22.492-21.46,38.775
			c11.062,77.73,18.079,156.332,21.029,235.166l-0.004-0.188V372.587z"/>
		<path id="XMLID_36832_" style="fill:#B3B2B0;" d="M553.368,445c0.635,0,1.43-0.001,2.266-0.001h-3.141
			C552.784,444.999,553.077,445,553.368,445z"/>
		<path id="XMLID_36831_" style="fill:#F7B82A;" d="M420.121,439.142c43.863,4.881,88.646,5.844,132.372,5.856h3.141
			c2.504-0.002,5.366-0.007,5.366-0.007s2.862,0.004,5.366,0.007h3.141c43.725-0.013,88.509-0.975,132.372-5.856
			c16.642-1.852,35.26-3.458,53.318-7.147l1.285-58.989l0.009-0.419H365.509v0.09l0.004,0.188l1.29,59.13
			C384.861,435.684,403.478,437.29,420.121,439.142z"/>
		<path id="XMLID_36830_" style="fill:#1A1A1A;" d="M843.567,367.822c-13.492,4.073-15.963,22.078-24.205,31.629
			c-16.094,18.651-39.612,27.527-64.165,32.544c-18.058,3.689-36.676,5.296-53.318,7.147c-43.863,4.881-88.647,5.844-132.372,5.856
			c-0.291,0-0.584,0.001-0.875,0.001c-0.636,0-1.431-0.001-2.266-0.001c-2.504-0.002-5.366-0.007-5.366-0.007
			s-2.862,0.004-5.366,0.007c-0.835,0.001-1.63,0.001-2.266,0.001c-0.292,0-0.584-0.001-0.876-0.001
			c-43.725-0.013-88.509-0.975-132.372-5.856c-16.643-1.852-35.26-3.458-53.318-7.148c-24.553-5.017-48.07-13.893-64.164-32.544
			c-8.241-9.551-10.713-27.556-24.205-31.629c-20.314-6.132-26.524,21.521-25.942,34.303c1.19,26.143,23.017,50.29,43.091,64.885
			c25.625,18.63,57.203,29.067,87.647,36.591c55.413,13.695,113.252,17.066,170.138,17.066c2.476,0,7.435-0.029,7.435-0.029
			s5.352,0.029,7.828,0.029c56.886,0,114.726-3.371,170.138-17.066c30.445-7.524,62.023-17.961,87.647-36.591
			c20.074-14.595,41.901-38.742,43.091-64.885C870.091,389.342,863.881,361.689,843.567,367.822z"/>
	</g>
</g>
</svg>
